<svg xmlns="http://www.w3.org/2000/svg" width="394.86126708984375" height="216.8152618408203" viewBox="-135.8317413330078 -144.41368103027344 394.86126708984375 216.8152618408203"><title>Neo4j Graph Visualization</title><desc>Created using Neo4j (http://www.neo4j.com/)</desc><g class="layer relationships"><g class="relationship" transform="translate(46.00294691971932 43.401580659538524) rotate(270.47680666155827)"><path class="b-outline" fill="#A5ABB6" stroke="none" d="M 24.018736134675446,-6.953439040707552 L 24.277555179777966,-5.987513214418485 A 185.59165334119461 185.59165334119461 0 0 1 41.789631194804,-9.784304470344011 L 41.62517025094018,-10.770688066083238 A 186.59165334119461 186.59165334119461 0 0 0 24.018736134675446,-6.953439040707552 Z M 98.66347232665403,-11.441305693628465 L 98.5222480962115,-10.451328059166002 A 185.59165334119461 185.59165334119461 0 0 1 116.11875107818558,-7.067319636821304 L 115.4106393617426,-4.152087605398046 L 123.03897777091368,-5.900930970358214 L 117.0629000334429,-10.95429567871898 L 116.35478831699992,-8.039063647295723 A 186.59165334119461 186.59165334119461 0 0 0 98.66347232665403,-11.441305693628465"/><text text-anchor="middle" pointer-events="none" font-size="8px" fill="#000000" x="70.12442157913465" y="-9.798534630617638" font-family="Helvetica Neue, Helvetica, Arial, sans-serif">INTERACTED</text></g><g class="relationship" transform="translate(46.00294691971932 43.401580659538524) rotate(270.47680666155827)"><path class="b-outline" fill="#A5ABB6" stroke="none" d="M 24.018736134675446,6.953439040707552 L 24.277555179777966,5.987513214418485 A 185.59165334119461 185.59165334119461 0 0 0 32.42710936271233,7.974922897527762 L 32.21220152825004,8.951557231701372 A 186.59165334119461 186.59165334119461 0 0 1 24.018736134675446,6.953439040707552 Z M 108.11660931118644,9.843989720313147 L 107.92472291651919,8.862572575801408 A 185.59165334119461 185.59165334119461 0 0 0 116.11875107818558,7.067319636821304 L 115.4106393617426,4.152087605398046 L 123.03897777091368,5.900930970358214 L 117.0629000334429,10.95429567871898 L 116.35478831699992,8.039063647295723 A 186.59165334119461 186.59165334119461 0 0 1 108.11660931118644,9.843989720313147"/><text text-anchor="middle" pointer-events="none" font-size="8px" fill="#000000" x="70.12442157913468" y="15.798534630617638" font-family="Helvetica Neue, Helvetica, Arial, sans-serif">VIEWED_PROFILE</text></g><g class="relationship" transform="translate(46.00294691971932 43.401580659538524) rotate(181.6779875438508)"><path class="b-outline" fill="#A5ABB6" stroke="none" d="M 25 0.5 L 34.83098589893409 0.5 L 34.83098589893409 -0.5 L 25 -0.5 Z M 111.06926714893409 0.5 L 120.90025304786818 0.5 L 120.90025304786818 3.5 L 127.90025304786818 0 L 120.90025304786818 -3.5 L 120.90025304786818 -0.5 L 111.06926714893409 -0.5 Z"/><text text-anchor="middle" pointer-events="none" font-size="8px" fill="#000000" x="72.95012652393409" y="3" transform="rotate(180 72.95012652393409 0)" font-family="Helvetica Neue, Helvetica, Arial, sans-serif">VIEWED_PROFILE</text></g><g class="relationship" transform="translate(46.00294691971932 43.401580659538524) rotate(359.7074422472201)"><path class="b-outline" fill="#A5ABB6" stroke="none" d="M 25 0.5 L 39.06529534188419 0.5 L 39.06529534188419 -0.5 L 25 -0.5 Z M 75.2879515918842 0.5 L 89.35324693376838 0.5 L 89.35324693376838 3.5 L 96.35324693376838 0 L 89.35324693376838 -3.5 L 89.35324693376838 -0.5 L 75.2879515918842 -0.5 Z"/><text text-anchor="middle" pointer-events="none" font-size="8px" fill="#000000" x="57.17662346688419" y="3" font-family="Helvetica Neue, Helvetica, Arial, sans-serif">WORKS</text></g><g class="relationship" transform="translate(211.56311226329493 -108.54736537689979) rotate(538.3891296429041)"><path class="b-outline" fill="#A5ABB6" stroke="none" d="M 21.40063509461097,-12.933012701892217 L 21.90063509461097,-12.06698729810778 A 118.17077981551083 118.17077981551083 0 0 1 41.383004577940646,-21.065118763471716 L 41.047870795407825,-22.007289314807963 A 119.17077981551083 119.17077981551083 0 0 0 21.40063509461097,-12.933012701892217 Z M 116.28171065248685,-23.552030077204236 L 115.98553330343566,-22.596897113733178 A 118.17077981551083 118.17077981551083 0 0 1 135.82083579504257,-14.406056764941072 L 134.42874518994665,-11.748598628449788 L 142.25358654770488,-11.600755042465854 L 137.6769566018371,-17.949334280262786 L 136.2848659967412,-15.291876143771502 A 119.17077981551083 119.17077981551083 0 0 0 116.28171065248685,-23.552030077204236"/><text text-anchor="middle" pointer-events="none" font-size="8px" fill="#000000" x="78.54992760348894" y="-25.373862827311058" transform="rotate(180 78.54992760348894 -28.373862827311058)" font-family="Helvetica Neue, Helvetica, Arial, sans-serif">VIEWED_PROFILE</text></g><g class="relationship" transform="translate(211.56311226329493 -108.54736537689979) rotate(538.3891296429041)"><path class="b-outline" fill="#A5ABB6" stroke="none" d="M 25 0.5 L 50.14289488423282 0.5 L 50.14289488423282 -0.5 L 25 -0.5 Z M 107.25617613423282 0.5 L 132.39907101846563 0.5 L 132.39907101846563 3.5 L 139.39907101846563 0 L 132.39907101846563 -3.5 L 132.39907101846563 -0.5 L 107.25617613423282 -0.5 Z"/><text text-anchor="middle" pointer-events="none" font-size="8px" fill="#000000" x="78.69953550923282" y="3" transform="rotate(180 78.69953550923282 0)" font-family="Helvetica Neue, Helvetica, Arial, sans-serif">INTERACTED</text></g><g class="relationship" transform="translate(211.56311226329493 -108.54736537689979) rotate(441.90208482151576)"><path class="b-outline" fill="#A5ABB6" stroke="none" d="M 25 0.5 L 43.93519046015699 0.5 L 43.93519046015699 -0.5 L 25 -0.5 Z M 80.15784671015699 0.5 L 99.09303717031398 0.5 L 99.09303717031398 3.5 L 106.09303717031398 0 L 99.09303717031398 -3.5 L 99.09303717031398 -0.5 L 80.15784671015699 -0.5 Z"/><text text-anchor="middle" pointer-events="none" font-size="8px" fill="#000000" x="62.04651858515699" y="3" font-family="Helvetica Neue, Helvetica, Arial, sans-serif">WORKS</text></g><g class="relationship" transform="translate(47.22901181387887 -103.92589578209063) rotate(358.3891296429041)"><path class="b-outline" fill="#A5ABB6" stroke="none" d="M 21.40063509461097,-12.933012701892217 L 21.90063509461097,-12.06698729810778 A 118.17077981551083 118.17077981551083 0 0 1 41.383004577940646,-21.065118763471716 L 41.047870795407825,-22.007289314807963 A 119.17077981551083 119.17077981551083 0 0 0 21.40063509461097,-12.933012701892217 Z M 116.28171065248685,-23.552030077204236 L 115.98553330343566,-22.596897113733178 A 118.17077981551083 118.17077981551083 0 0 1 135.82083579504257,-14.406056764941072 L 134.42874518994665,-11.748598628449788 L 142.25358654770488,-11.600755042465854 L 137.6769566018371,-17.949334280262786 L 136.2848659967412,-15.291876143771502 A 119.17077981551083 119.17077981551083 0 0 0 116.28171065248685,-23.552030077204236"/><text text-anchor="middle" pointer-events="none" font-size="8px" fill="#000000" x="78.54992760348894" y="-25.373862827311058" font-family="Helvetica Neue, Helvetica, Arial, sans-serif">VIEWED_PROFILE</text></g><g class="relationship" transform="translate(47.22901181387887 -103.92589578209063) rotate(537.8031624540392)"><path class="b-outline" fill="#A5ABB6" stroke="none" d="M 25 0.5 L 51.302052716752684 0.5 L 51.302052716752684 -0.5 L 25 -0.5 Z M 87.52470896675268 0.5 L 113.82676168350537 0.5 L 113.82676168350537 3.5 L 120.82676168350537 0 L 113.82676168350537 -3.5 L 113.82676168350537 -0.5 L 87.52470896675268 -0.5 Z"/><text text-anchor="middle" pointer-events="none" font-size="8px" fill="#000000" x="69.41338084175268" y="3" transform="rotate(180 69.41338084175268 0)" font-family="Helvetica Neue, Helvetica, Arial, sans-serif">WORKS</text></g><g class="relationship" transform="translate(-106.83174002573566 38.9243216334266) rotate(273.4775296240734)"><path class="b-outline" fill="#A5ABB6" stroke="none" d="M 25 0.5 L 47.14542143999856 0.5 L 47.14542143999856 -0.5 L 25 -0.5 Z M 83.36807768999856 0.5 L 105.51349912999711 0.5 L 105.51349912999711 3.5 L 112.51349912999711 0 L 105.51349912999711 -3.5 L 105.51349912999711 -0.5 L 83.36807768999856 -0.5 Z"/><text text-anchor="middle" pointer-events="none" font-size="8px" fill="#000000" x="65.25674956499856" y="3" font-family="Helvetica Neue, Helvetica, Arial, sans-serif">WORKS</text></g></g><g class="layer nodes"><g class="node" aria-label="graph-node0" transform="translate(46.00294691971932,43.401580659538524)"><circle class="b-outline" cx="0" cy="0" r="25" fill="#C990C0" stroke="#b261a5" stroke-width="2px"/><text class="caption" text-anchor="middle" pointer-events="none" x="0" y="5" font-size="10px" fill="#FFFFFF" font-family="Helvetica Neue, Helvetica, Arial, sans-serif"> Tom</text></g><g class="node" aria-label="graph-node1" transform="translate(230.02956019246542,21.238514808182572)"><circle class="b-outline" cx="0" cy="0" r="25" fill="#F79767" stroke="#f36924" stroke-width="2px"/><text class="caption" text-anchor="middle" pointer-events="none" x="0" y="5" font-size="10px" fill="#FFFFFF" font-family="Helvetica Neue, Helvetica, Arial, sans-serif"> Y-recruiter</text></g><g class="node" aria-label="graph-node2" transform="translate(211.56311226329493,-108.54736537689979)"><circle class="b-outline" cx="0" cy="0" r="25" fill="#C990C0" stroke="#b261a5" stroke-width="2px"/><text class="caption" text-anchor="middle" pointer-events="none" x="0" y="5" font-size="10px" fill="#FFFFFF" font-family="Helvetica Neue, Helvetica, Arial, sans-serif"> Olivia</text></g><g class="node" aria-label="graph-node4" transform="translate(47.22901181387887,-103.92589578209063)"><circle class="b-outline" cx="0" cy="0" r="25" fill="#C990C0" stroke="#b261a5" stroke-width="2px"/><text class="caption" text-anchor="middle" pointer-events="none" x="0" y="5" font-size="10px" fill="#FFFFFF" font-family="Helvetica Neue, Helvetica, Arial, sans-serif"> Sam</text></g><g class="node" aria-label="graph-node5" transform="translate(-106.83174002573566,38.9243216334266)"><circle class="b-outline" cx="0" cy="0" r="25" fill="#C990C0" stroke="#b261a5" stroke-width="2px"/><text class="caption" text-anchor="middle" pointer-events="none" x="0" y="5" font-size="10px" fill="#FFFFFF" font-family="Helvetica Neue, Helvetica, Arial, sans-serif"> Jack</text></g><g class="node" aria-label="graph-node6" transform="translate(167.35461188284603,42.78194201870886)"><circle class="b-outline" cx="0" cy="0" r="25" fill="#F79767" stroke="#f36924" stroke-width="2px"/><text class="caption" text-anchor="middle" pointer-events="none" x="0" y="5" font-size="10px" fill="#FFFFFF" font-family="Helvetica Neue, Helvetica, Arial, sans-serif"> X-recruiter</text></g><g class="node" aria-label="graph-node7" transform="translate(-98.49057211599512,-98.3359689129555)"><circle class="b-outline" cx="0" cy="0" r="25" fill="#F79767" stroke="#f36924" stroke-width="2px"/><text class="caption" text-anchor="middle" pointer-events="none" x="0" y="5" font-size="10px" fill="#FFFFFF" font-family="Helvetica Neue, Helvetica, Arial, sans-serif"> Google</text></g></g></svg>